<svg width="99" height="99" viewBox="0 0 99 99" fill="none" xmlns="http://www.w3.org/2000/svg">
<g clip-path="url(#clip0_78_18)">
<path d="M85.5203 0H13.4796C12.6677 0 12.0093 0.658389 12.0093 1.4703V77.0961C12.0093 77.908 12.6677 78.5664 13.4796 78.5664C14.2916 78.5664 14.9499 77.908 14.9499 77.0961V28.6189H60.9996C61.8116 28.6189 62.4699 27.9605 62.4699 27.1486C62.4699 26.3367 61.8116 25.6783 60.9996 25.6783H14.9499V2.94061H84.05V25.6783H67.8612C67.0493 25.6783 66.3909 26.3367 66.3909 27.1486C66.3909 27.9605 67.0493 28.6189 67.8612 28.6189H84.05V96.0596H14.9499V83.9578C14.9499 83.1459 14.2916 82.4875 13.4796 82.4875C12.6677 82.4875 12.0093 83.1459 12.0093 83.9578V97.5299C12.0093 98.3418 12.6677 99.0002 13.4796 99.0002H85.5203C86.3322 99.0002 86.9906 98.3418 86.9906 97.5299V1.4703C86.9906 0.658389 86.3324 0 85.5203 0Z" fill="black"/>
<path d="M25.9273 16.6643C25.3529 16.6643 24.8799 16.8333 24.8463 17.3569C24.7954 18.0663 24.6605 19.1644 23.1232 19.1644C21.9577 19.1644 21.3157 18.5395 21.3157 17.2219V12.509C21.3157 11.1914 21.9575 10.5665 23.0892 10.5665C24.6939 10.5665 24.8122 11.7151 24.8461 12.2389C24.8629 12.7457 25.319 12.9315 25.9442 12.9315C26.6874 12.9315 27.0423 12.7288 27.0423 11.8504C27.0423 9.89071 25.3699 8.64084 23.0219 8.64084C20.8934 8.64084 19.1199 9.68807 19.1199 12.509V17.2217C19.1199 20.0427 20.8766 21.0899 23.0051 21.0899C25.3699 21.0899 27.0423 19.7892 27.0423 17.7454C27.0423 16.8839 26.6874 16.6643 25.9273 16.6643Z" fill="black"/>
<path d="M34.0348 8.64084C31.8049 8.64084 30.0819 9.68807 30.0819 12.509V17.2217C30.0819 20.0427 31.8049 21.0899 34.0348 21.0899C36.2646 21.0899 38.0044 20.0427 38.0044 17.2217V12.509C38.0042 9.68807 36.2644 8.64084 34.0348 8.64084ZM35.8084 17.2219C35.8084 18.5563 35.1328 19.1644 34.0349 19.1644C32.92 19.1644 32.2783 18.5563 32.2783 17.2219V12.509C32.2783 11.1746 32.92 10.5665 34.0349 10.5665C35.133 10.5665 35.8084 11.1746 35.8084 12.509V17.2219Z" fill="black"/>
<path d="M50.2505 8.64084C49.4566 8.64084 49.0851 8.80983 48.5275 9.80641L46.4498 13.5903L44.372 9.80641C43.8145 8.80983 43.4599 8.64084 42.6658 8.64084C42.1083 8.64084 41.5677 8.92798 41.5677 9.73893V20.2962C41.5677 20.7521 42.1081 20.9888 42.6658 20.9888C43.2064 20.9888 43.7639 20.7521 43.7639 20.2962V12.8975L45.7064 16.5463C45.8922 16.8841 46.1625 16.9855 46.4326 16.9855C46.7029 16.9855 46.9901 16.8841 47.1761 16.5463L49.1524 13.0328V20.2965C49.1524 20.7525 49.6929 20.9892 50.2505 20.9892C50.7911 20.9892 51.3486 20.7525 51.3486 20.2965V9.73912C51.3486 8.92798 50.808 8.64084 50.2505 8.64084Z" fill="black"/>
<path d="M56.1619 8.64066C55.6046 8.64066 55.0638 8.8433 55.0638 9.31645V20.2962C55.0638 20.7521 55.6044 20.9888 56.1619 20.9888C56.7025 20.9888 57.2602 20.7521 57.2602 20.2962V9.31645C57.2602 8.8433 56.7025 8.64066 56.1619 8.64066Z" fill="black"/>
<path d="M67.665 16.6643C67.0905 16.6643 66.6175 16.8333 66.5839 17.3569C66.533 18.0663 66.3981 19.1644 64.8609 19.1644C63.6953 19.1644 63.0533 18.5395 63.0533 17.2219V12.509C63.0533 11.1914 63.6953 10.5665 64.8268 10.5665C66.4317 10.5665 66.5498 11.7151 66.5837 12.2389C66.6005 12.7457 67.0566 12.9315 67.6818 12.9315C68.425 12.9315 68.7799 12.7288 68.7799 11.8504C68.7799 9.89071 67.1077 8.64084 64.7597 8.64084C62.6312 8.64084 60.8575 9.68807 60.8575 12.509V17.2217C60.8575 20.0427 62.6144 21.0899 64.7427 21.0899C67.1077 21.0899 68.7799 19.7892 68.7799 17.7454C68.7799 16.8839 68.425 16.6643 67.665 16.6643Z" fill="black"/>
<path d="M73.8467 11.7323C73.8467 10.9215 74.5394 10.4316 75.7556 10.4316C77.1745 10.4316 77.5631 11.0733 78.0867 11.0733C78.6949 11.0733 78.965 10.2962 78.965 9.90776C78.965 8.79304 76.7524 8.55637 75.7556 8.55637C73.8131 8.55637 71.651 9.41778 71.651 11.9347C71.651 15.9382 77.0731 15.1611 77.0731 17.6949C77.0731 18.7085 76.1947 19.1644 75.1811 19.1644C73.4581 19.1644 73.0022 17.8637 72.3095 17.8637C71.7859 17.8637 71.3468 18.5732 71.3468 19.0463C71.3468 20.0261 73.0358 21.141 75.2488 21.141C77.5799 21.141 79.2691 19.8911 79.2691 17.4755C79.2693 13.1003 73.8467 13.827 73.8467 11.7323Z" fill="black"/>
<path d="M79.9383 60.537C79.8671 59.8339 79.3056 59.2809 78.6016 59.2204C72.5856 58.7024 69.0196 57.2209 67.7 54.6911C65.6185 50.7012 68.7733 43.6749 74.1504 34.3524C74.519 33.7134 74.3571 32.9001 73.7714 32.4511C73.1865 32.002 72.3588 32.0561 71.8369 32.5782C63.4521 40.9632 55.6987 45.0238 50.5672 43.7203C47.5032 42.9419 45.2705 40.2532 43.9313 35.7286C43.7364 35.0704 43.1108 34.6338 42.4273 34.6788C41.7424 34.7227 41.179 35.2347 41.0699 35.9125C40.8315 37.3944 40.6223 38.8049 40.4378 40.0496C39.6505 45.3617 39.0816 49.1997 37.5032 50.0045C35.8171 50.8646 31.728 48.9335 28.7988 47.4063C28.1984 47.0935 27.4623 47.2308 27.0148 47.7393C26.5678 48.2478 26.5256 48.9957 26.9129 49.5511C28.8023 52.261 31.2403 56.0696 30.6034 57.8518C30.0071 59.5205 26.2733 60.5758 21.1056 62.0363C19.8948 62.3785 18.5225 62.7664 17.0835 63.1924C16.4253 63.3873 15.9897 64.0114 16.0338 64.6963C16.0777 65.3812 16.5897 65.9447 17.2674 66.0537C21.7203 66.7703 24.3662 68.0772 25.3566 70.0493C27.0825 73.4866 24.2365 79.4678 20.0268 87.5423C19.7078 88.1541 19.8573 88.9055 20.3861 89.3489C20.9147 89.7922 21.681 89.8081 22.2276 89.387C29.9348 83.4516 35.7437 79.7167 39.0431 80.7867C41.1575 81.4718 42.8546 84.3258 44.5465 90.0403C44.7324 90.668 45.3086 91.0934 45.9557 91.0932C45.9873 91.0932 46.019 91.0922 46.0507 91.0901C46.7356 91.0462 47.299 90.5342 47.4081 89.8564C48.0881 85.63 49.5135 83.0258 51.7658 81.8949C56.1618 79.6879 63.7589 83.0285 71.3146 86.9675C71.9247 87.2857 72.6739 87.1382 73.1179 86.6121C73.5617 86.0863 73.5816 85.3229 73.1655 84.7748C67.9767 77.9376 65.9918 72.9758 67.0969 69.6061C68.1064 66.5278 71.7445 64.2116 78.8928 62.0953C79.5705 61.8944 80.0094 61.24 79.9383 60.537ZM64.303 68.6892C63.1661 72.1563 64.1984 76.3996 67.5482 81.8237C60.4387 78.5438 54.7285 77.1164 50.4465 79.2665C48.3826 80.3029 46.8375 82.0764 45.7798 84.641C44.1639 80.7811 42.3558 78.7684 39.9498 77.9888C39.2717 77.769 38.5594 77.6584 37.8008 77.6584C36.0594 77.6584 34.0771 78.2427 31.7251 79.4344C29.9607 80.3281 27.9345 81.5849 25.4392 83.3447C28.4248 77.0951 29.8319 72.4083 27.9845 68.7296C27.0843 66.9368 25.4432 65.5525 23.0152 64.5517C28.8142 62.9037 32.3313 61.7563 33.3727 58.8418C33.9901 57.1145 33.6134 55.0825 32.0198 52.1402C35.1411 53.3438 37.2055 53.4577 38.8393 52.6243C41.6258 51.2035 42.2991 47.5067 43.2058 41.4319C44.8714 44.1496 47.0919 45.8716 49.8434 46.5706C53.0805 47.393 56.8724 46.706 61.1157 44.5289C63.1993 43.4597 65.3686 42.0439 67.6066 40.2948C64.3334 47.0084 63.0713 52.1767 65.0929 56.0514C66.36 58.48 68.8425 60.1845 72.6237 61.2031C67.9372 63.2293 65.3077 65.6262 64.303 68.6892Z" fill="black"/>
<path d="M62.2102 64.4354C56.224 60.5456 55.1055 58.0457 57.6071 54.1476C57.9778 53.5698 57.8995 52.8126 57.4184 52.323C56.9373 51.8332 56.1815 51.7418 55.5975 52.1022C54.7531 52.6231 52.1863 54.2092 51.2969 53.8459C50.4029 53.481 49.6599 50.4807 49.4158 49.4947C49.2674 48.8949 48.7598 48.452 48.1453 48.3862C47.5318 48.3197 46.941 48.6455 46.6688 49.2003C43.7655 55.1143 41.4831 57.397 35.5686 60.3004C35.0135 60.5729 34.6882 61.1636 34.7548 61.7785C34.8215 62.3936 35.2654 62.9007 35.866 63.0483C37.0938 63.3495 37.8412 63.8113 38.0875 64.4205C38.7981 66.1786 36.3519 70.0657 34.3864 73.189L34.3758 73.2056C34.0101 73.7865 34.1033 74.5379 34.5887 75.0234C34.8708 75.3055 35.2478 75.4507 35.628 75.4507C35.9012 75.4507 36.1763 75.3757 36.4194 75.2228C39.5429 73.2569 43.4302 70.8105 45.188 71.5213C45.7971 71.7674 46.2591 72.515 46.5603 73.7428C46.7077 74.3432 47.215 74.7875 47.8301 74.854C48.4454 74.9207 49.0355 74.5953 49.3083 74.0402C52.1418 68.268 55.8909 67.1386 61.4094 67.1386C62.0604 67.1386 62.6341 66.7103 62.8189 66.0861C63.0038 65.462 62.7561 64.7902 62.2102 64.4354ZM48.1333 70.2047C47.6279 69.5585 47.0126 69.0871 46.29 68.7949C45.7111 68.5609 45.1032 68.4554 44.4693 68.4554C43.0184 68.4554 41.4334 69.0097 39.7608 69.8474C40.9635 67.4462 41.5832 65.2234 40.8129 63.318C40.5354 62.6318 40.0965 62.0422 39.4996 61.5519C43.2361 59.4156 45.4879 57.2326 47.6311 53.627C48.254 55.0935 49.0357 56.0991 50.185 56.5682C51.1895 56.9783 52.2733 56.9025 53.5013 56.4737C52.9493 59.7178 54.681 62.2708 57.2811 64.4768C53.6537 65.0418 50.6002 66.5885 48.1333 70.2047Z" fill="black"/>
</g>
<defs>
<clipPath id="clip0_78_18">
<rect width="99" height="99" fill="white"/>
</clipPath>
</defs>
</svg>
