<svg width="99" height="99" viewBox="0 0 99 99" fill="none" xmlns="http://www.w3.org/2000/svg">
<path d="M89.0532 54.3051C90.3286 50.2459 90.976 46.0286 90.976 41.7317C90.976 31.0897 87.0409 21.0578 79.8677 13.3117C79.841 13.28 79.8124 13.2508 79.7839 13.2211C79.4705 12.8846 79.1534 12.5508 78.8278 12.2233C70.9936 4.34103 60.577 0 49.4971 0C37.6575 0 26.9616 5.01886 19.398 13.0523C19.254 13.1684 19.1244 13.3065 19.0155 13.4656C12.1965 20.9054 8.02403 30.8369 8.02403 41.7317C8.02403 46.0352 8.66965 50.2529 9.94196 54.3059C4.31597 55.2004 0 60.1125 0 66.0208V87.1385C0 93.6791 5.28838 99.0001 11.7883 99.0001H40.8044C41.8722 99.0001 42.738 98.1291 42.738 97.0551C42.738 95.981 41.8722 95.1101 40.8044 95.1101H11.7883C7.42055 95.1101 3.86719 91.534 3.86719 87.1387V66.0208C3.86719 61.6253 7.42055 58.0494 11.7883 58.0494H30.3744C30.3773 58.0494 30.3802 58.0498 30.3831 58.0498C30.3857 58.0498 30.3882 58.0494 30.3907 58.0494H68.6039C68.6064 58.0494 68.6089 58.0498 68.6114 58.0498C68.6143 58.0498 68.6172 58.0494 68.6201 58.0494H86.3659C86.37 58.0494 86.3742 58.05 86.3783 58.05C86.3833 58.05 86.3883 58.0494 86.3934 58.0494H87.2118C91.5796 58.0494 95.133 61.6255 95.133 66.0208V87.1385C95.133 91.534 91.5796 95.1099 87.2118 95.1099H58.1735C57.1058 95.1099 56.2399 95.9809 56.2399 97.0549C56.2399 98.1289 57.1058 98.9999 58.1735 98.9999H87.2117C93.7116 98.9999 99 93.679 99 87.1385V66.0208C99 60.1107 94.6815 55.1975 89.0532 54.3051ZM70.9287 54.1595C71.4879 50.7717 71.8141 47.2613 71.9005 43.6767H87.0583C86.8777 47.2627 86.1965 50.7757 85.0267 54.1595H70.9287ZM51.4307 54.1595V43.6767H68.0308C67.9399 47.2724 67.5963 50.7849 67.0054 54.1595H51.4307ZM31.9907 54.1595C31.3992 50.7687 31.0553 47.2565 30.964 43.6767H47.5637V54.1595H31.9907ZM13.9681 54.1595C12.801 50.7814 12.1213 47.2682 11.9415 43.6767H27.0943C27.1809 47.247 27.5077 50.7571 28.0679 54.1595H13.9681ZM21.0516 17.0058C23.801 18.4051 26.8512 19.5769 30.1269 20.5057C28.3061 26.3128 27.2602 32.9011 27.0943 39.7869H11.9403C12.3793 31.1037 15.7408 23.1841 21.0516 17.0058ZM87.0597 39.7869H71.9001C71.7342 32.9013 70.6883 26.3132 68.8675 20.506C72.1441 19.5771 75.1959 18.4053 77.947 17.006C83.2588 23.1843 86.6207 31.1039 87.0597 39.7869ZM47.5635 19.1397C43.3032 19.0273 39.1357 18.5453 35.2332 17.7329C35.6955 16.6077 36.1917 15.5251 36.723 14.4935C39.7603 8.59647 43.5527 4.98696 47.5633 4.10471V19.1397H47.5635ZM47.5635 23.031V39.7867H30.9621C31.128 33.1979 32.1371 26.9257 33.886 21.4431C38.1844 22.3754 42.7922 22.9161 47.5635 23.031ZM51.4307 23.031C56.2014 22.9161 60.8092 22.3754 65.1084 21.4431C66.8573 26.9257 67.8662 33.1979 68.0321 39.7867H51.4307V23.031ZM51.4307 19.1397V4.10452C55.4415 4.98676 59.2339 8.59628 62.2712 14.4933C62.8025 15.5249 63.2987 16.6075 63.761 17.7327C59.8579 18.5451 55.6904 19.0273 51.4307 19.1397ZM67.5623 16.8133C66.9944 15.3794 66.3756 14.0057 65.7051 12.7039C64.2756 9.9284 62.6691 7.57691 60.9281 5.67879C66.2764 7.39933 71.1073 10.2933 75.1219 14.0588C72.8197 15.1371 70.2778 16.0604 67.5623 16.8133ZM33.2893 12.7039C32.619 14.0057 32 15.3792 31.4323 16.8131C28.7177 16.0602 26.177 15.1369 23.8764 14.0588C27.8896 10.2939 32.7189 7.40011 38.0655 5.67957C36.3249 7.57769 34.7186 9.92899 33.2893 12.7039Z" fill="black"/>
<path d="M23.3982 68.0726V79.1604L14.4476 66.9202C13.9522 66.2432 13.0809 65.9625 12.287 66.2247C11.4933 66.4867 10.9563 67.2322 10.9563 68.0726V85.0872C10.9563 86.1612 11.8222 87.0322 12.8899 87.0322C13.9576 87.0322 14.8235 86.1612 14.8235 85.0872V73.9994L23.7741 86.2396C24.1455 86.7475 24.7287 87.0324 25.332 87.0324C25.5331 87.0324 25.7363 87.0007 25.9347 86.9352C26.7284 86.6732 27.2654 85.9277 27.2654 85.0872V68.0726C27.2654 66.9986 26.3995 66.1277 25.3318 66.1277C24.2641 66.1277 23.3982 66.9986 23.3982 68.0726Z" fill="black"/>
<path d="M42.0816 70.0175C43.1493 70.0175 44.0152 69.1466 44.0152 68.0725C44.0152 66.9985 43.1493 66.1276 42.0816 66.1276H34.2548C33.187 66.1276 32.3212 66.9985 32.3212 68.0725V85.0871C32.3212 86.1611 33.187 87.032 34.2548 87.032H42.0816C43.1493 87.032 44.0152 86.1611 44.0152 85.0871C44.0152 84.013 43.1493 83.1421 42.0816 83.1421H36.1884V78.5274H42.0816C43.1493 78.5274 44.0152 77.6564 44.0152 76.5824C44.0152 75.5084 43.1493 74.6374 42.0816 74.6374H36.1884V70.0175H42.0816Z" fill="black"/>
<path d="M63.3147 86.4077C63.6881 86.8138 64.2057 87.032 64.7345 87.032C64.9712 87.032 65.2102 86.9883 65.4393 86.8982C66.1803 86.6063 66.6679 85.8876 66.6679 85.0871V68.0725C66.6679 66.9985 65.802 66.1276 64.7343 66.1276C63.6666 66.1276 62.8007 66.9985 62.8007 68.0725V80.1198L59.2918 76.3041C59.2721 76.2827 59.2537 76.2652 59.2359 76.2491C59.2187 76.2319 59.2033 76.2137 59.1853 76.1969C58.4016 75.4676 57.1782 75.5152 56.4529 76.3041L52.9438 80.12V68.0725C52.9438 66.9985 52.078 66.1276 51.0103 66.1276C49.9425 66.1276 49.0767 66.9985 49.0767 68.0725V85.0871C49.0767 85.8874 49.5641 86.6063 50.3053 86.8982C50.5346 86.9885 50.7732 87.032 51.0101 87.032C51.5387 87.032 52.0565 86.8138 52.4299 86.4077L57.8726 80.4891L63.3147 86.4077Z" fill="black"/>
<path d="M81.8786 83.1421H73.6627C72.595 83.1421 71.7291 84.013 71.7291 85.0871C71.7291 86.1611 72.595 87.032 73.6627 87.032H81.8786C85.2749 87.032 88.038 84.2519 88.038 80.8347C88.038 77.4176 85.2749 74.6376 81.8786 74.6376H77.8884C76.6246 74.6376 75.5963 73.6027 75.5963 72.3305C75.5963 71.0552 76.6246 70.0177 77.8884 70.0177H86.1044C87.1722 70.0177 88.038 69.1468 88.038 68.0727C88.038 66.9987 87.1722 66.1277 86.1044 66.1277H77.8884C74.4922 66.1277 71.7291 68.9102 71.7291 72.3305C71.7291 75.7476 74.4922 78.5276 77.8884 78.5276H81.8786C83.1425 78.5276 84.1708 79.5625 84.1708 80.8347C84.1708 82.107 83.1425 83.1421 81.8786 83.1421Z" fill="black"/>
<path d="M49.4917 95.11C48.424 95.11 47.5581 95.9809 47.5581 97.055C47.5581 98.129 48.424 98.9999 49.4917 98.9999H49.4971C50.5648 98.9999 51.428 98.129 51.428 97.055C51.428 95.9809 50.5594 95.11 49.4917 95.11Z" fill="black"/>
</svg>
