<svg width="99" height="99" viewBox="0 0 99 99" fill="none" xmlns="http://www.w3.org/2000/svg">
<g clip-path="url(#clip0_78_9)">
<path d="M97.1309 15.0461L98.4343 13.7427C99.1893 12.9876 99.1893 11.7633 98.4343 11.008C97.6792 10.2531 96.4549 10.2531 95.6996 11.008L94.3962 12.3114L93.0936 11.0088C92.731 10.6462 92.2391 10.4424 91.7263 10.4424H89.5996L79.7235 0.566343C79.3608 0.203798 78.869 0 78.3563 0H6.96457C3.12488 0 0.00100708 3.12368 0.00100708 6.96356V43.1989C0.00100708 47.0386 3.12488 50.1624 6.96457 50.1624H23.8098L12.482 61.4905C11.1668 62.8057 10.4425 64.5544 10.4425 66.4145C10.4425 68.2744 11.1668 70.0231 12.482 71.3385L38.1041 96.9607C39.4194 98.2759 41.1681 99.0002 43.0282 99.0002C44.8883 99.0002 46.637 98.2759 47.9522 96.9607L67.1423 77.7707C67.8976 77.0157 67.8976 75.7913 67.1423 75.0361C66.3873 74.2814 65.1629 74.2812 64.4079 75.0361L45.2176 94.226C44.6329 94.8109 43.8552 95.1329 43.0282 95.1329C42.2012 95.1329 41.4235 94.8109 40.8388 94.226L15.2165 68.6039C14.6318 68.0192 14.3096 67.2415 14.3096 66.4145C14.3096 65.5873 14.6318 64.8098 15.2165 64.2251L65.1316 14.31H90.9256L91.6619 15.0463L87.1908 19.5175C86.4334 19.1543 85.5859 18.9507 84.6914 18.9507C81.4929 18.9507 78.8907 21.5529 78.8907 24.7514C78.8907 27.95 81.4929 30.5522 84.6914 30.5522C87.8899 30.5522 90.4921 27.95 90.4921 24.7514C90.4921 23.857 90.2883 23.0093 89.9252 22.2521L94.3964 17.7809L95.1327 18.5172V44.3111L76.7127 62.7312C75.9577 63.4863 75.9577 64.7106 76.7127 65.4659C77.4678 66.2207 78.6921 66.2207 79.4474 65.4659L98.4337 46.4796C98.7962 46.1168 99 45.6251 99 45.1123V17.716C99 17.2032 98.7962 16.7115 98.4337 16.3487L97.1309 15.0461ZM34.7239 34.695C33.6573 34.695 32.7897 33.8274 32.7897 32.7609C32.7897 31.6941 33.6573 30.8265 34.7239 30.8265C35.7904 30.8265 36.658 31.6941 36.658 32.7609C36.658 33.8272 35.7904 34.695 34.7239 34.695ZM64.3307 10.4426C63.8179 10.4426 63.326 10.6464 62.9635 11.009L40.4772 33.4951C40.5078 33.2543 40.5254 33.0095 40.5254 32.7607C40.5254 29.5618 37.923 26.9592 34.7241 26.9592C31.5254 26.9592 28.9228 29.5618 28.9228 32.7607C28.9228 35.9596 31.5252 38.562 34.7241 38.562C34.9729 38.562 35.2177 38.5444 35.4584 38.5138L27.6772 46.2951H6.96457C5.25723 46.2951 3.86815 44.906 3.86815 43.1987V6.96356C3.86815 5.25622 5.25723 3.86714 6.96457 3.86714H77.5552L84.1307 10.4426H64.3307ZM84.6914 26.6846C83.6253 26.6846 82.7579 25.8172 82.7579 24.7511C82.7579 23.6849 83.6253 22.8175 84.6914 22.8175C85.1327 22.8175 85.5387 22.9677 85.8645 23.2175C85.9158 23.2844 85.9703 23.3498 86.0314 23.4109C86.0925 23.472 86.1578 23.5265 86.2247 23.5778C86.4746 23.9036 86.6248 24.3096 86.6248 24.7509C86.625 25.8172 85.7576 26.6846 84.6914 26.6846Z" fill="black"/>
<path d="M64.3104 57.2018C64.8232 57.2018 65.3151 56.998 65.6776 56.6355L70.0527 52.2602C70.8078 51.5051 70.8078 50.2808 70.0527 49.5255C69.2976 48.7707 68.0733 48.7707 67.3183 49.5255L64.3104 52.5336L54.7396 42.963C53.9847 42.2081 52.7602 42.2081 52.0051 42.963C51.2501 43.7181 51.2501 44.9424 52.0051 45.6976L62.9432 56.6355C63.3059 56.998 63.7978 57.2018 64.3104 57.2018Z" fill="black"/>
<path d="M79.3501 40.2285C78.5951 39.4736 77.3707 39.4736 76.6155 40.2285L74.1544 42.6895L71.42 39.9553L73.881 37.4942C74.6361 36.7392 74.6361 35.5148 73.881 34.7596C73.126 34.0047 71.9016 34.0047 71.1464 34.7596L68.6853 37.2206L65.9509 34.4862L68.4119 32.0251C69.167 31.2701 69.1672 30.0457 68.4119 29.2905C67.6569 28.5358 66.4325 28.5356 65.6775 29.2905L61.8492 33.1188C61.4866 33.4813 61.2828 33.9732 61.2828 34.486C61.2828 34.9988 61.4866 35.4905 61.8492 35.8532L72.7872 46.791C73.1646 47.1685 73.6596 47.3574 74.1544 47.3574C74.6492 47.3574 75.1442 47.1685 75.5217 46.791L79.3499 42.9628C80.1052 42.2079 80.1052 40.9836 79.3501 40.2285Z" fill="black"/>
<path d="M57.9638 62.46C58.9149 62.9449 60.0795 62.5664 60.5645 61.6148C61.0492 60.6633 60.6708 59.4991 59.7191 59.0144L45.2264 51.6312C44.4801 51.2509 43.5738 51.3946 42.9815 51.9868C42.3893 52.5791 42.2456 53.4855 42.626 54.2317L50.0091 68.7244C50.3506 69.395 51.0293 69.7809 51.7335 69.7807C52.0287 69.7807 52.3286 69.7128 52.6096 69.5696C53.5611 69.0848 53.9395 67.9206 53.4549 66.9691L52.8621 65.8051L56.8002 61.867L57.9638 62.46ZM51.0161 62.1822L48.7724 57.7777L53.1771 60.0216L51.0161 62.1822Z" fill="black"/>
<path d="M39.4267 77.4175C38.6716 78.1726 38.6714 79.3969 39.4267 80.1522C39.8043 80.5296 40.2991 80.7185 40.7939 80.7185C41.2887 80.7185 41.7837 80.5296 42.1611 80.1522L44.8958 77.4177C47.1575 75.156 47.1575 71.476 44.8958 69.2141C42.746 67.0644 39.3161 66.9596 37.0393 68.8963C36.9685 68.9498 36.8997 69.0067 36.8353 69.0712L36.6922 69.2141C36.327 69.5794 35.8414 69.7805 35.325 69.7805C34.8085 69.7805 34.323 69.5794 33.9577 69.2141C33.2038 68.4602 33.2038 67.2336 33.9577 66.4795L36.6922 63.745C37.4473 62.99 37.4475 61.7656 36.6922 61.0104C35.9371 60.2557 34.7128 60.2555 33.9577 61.0104L31.2231 63.7448C28.9614 66.0065 28.9614 69.6867 31.2231 71.9486C32.3189 73.0442 33.7754 73.6474 35.3248 73.6474C36.872 73.6474 38.3268 73.0457 39.4224 71.9525C39.4238 71.9511 39.4253 71.9499 39.4267 71.9486C40.1804 71.1945 41.4072 71.1945 42.1611 71.9486C42.5264 72.3138 42.7275 72.7992 42.7275 73.3156C42.7275 73.8323 42.5264 74.3178 42.1611 74.6829L39.4267 77.4175Z" fill="black"/>
<path d="M33.1296 12.4826C32.1998 11.9578 31.0203 12.2858 30.4953 13.2158L18.0238 35.3076C17.4988 36.2377 17.827 37.417 18.757 37.9419C19.0575 38.1115 19.3837 38.1921 19.7058 38.1921C20.3806 38.1921 21.0359 37.8383 21.3913 37.2087L33.8628 15.1169C34.3878 14.1869 34.0597 13.0074 33.1296 12.4826Z" fill="black"/>
<path d="M24.204 17.4018C24.204 14.2028 21.6016 11.6004 18.4026 11.6004C15.2037 11.6004 12.6011 14.2028 12.6011 17.4018C12.6011 20.6007 15.2035 23.2033 18.4024 23.2033C21.6014 23.2033 24.204 20.6007 24.204 17.4018ZM16.4683 17.4018C16.4683 16.3352 17.3359 15.4676 18.4024 15.4676C19.469 15.4676 20.3366 16.3352 20.3366 17.4018C20.3366 18.4685 19.469 19.3361 18.4024 19.3361C17.3359 19.3361 16.4683 18.4685 16.4683 17.4018Z" fill="black"/>
<path d="M71.9271 68.3167C71.4167 68.3167 70.9197 68.5236 70.5601 68.8835C70.2004 69.2429 69.9935 69.7418 69.9935 70.2503C69.9935 70.7591 70.2004 71.2579 70.5601 71.6174C70.9197 71.977 71.4167 72.1839 71.9271 72.1839C72.4357 72.1839 72.9345 71.9772 73.2942 71.6174C73.6538 71.2579 73.8607 70.7591 73.8607 70.2503C73.8607 69.7418 73.6538 69.2429 73.2942 68.8835C72.9345 68.5238 72.4357 68.3167 71.9271 68.3167Z" fill="black"/>
</g>
<defs>
<clipPath id="clip0_78_9">
<rect width="99" height="99" fill="white"/>
</clipPath>
</defs>
</svg>
